<mxfile host="app.diagrams.net" modified="2023-06-15T06:03:47.106Z" agent="Mozilla/5.0 (Windows NT 10.0; Win64; x64) AppleWebKit/537.36 (KHTML, like Gecko) Chrome/114.0.0.0 Safari/537.36" version="21.4.0" etag="UHcdyy9WX19Q8b73fbjR" type="github">
  <diagram name="第 1 页" id="u7lfTC-PNQ8TaVl6gpMv">
    <mxGraphModel>
      <root>
        <mxCell id="0" />
        <mxCell id="1" parent="0" />
      </root>
    </mxGraphModel>
  </diagram>
</mxfile>
